<?xml version="1.0" encoding="UTF-8"?><svg id="Layer_1" xmlns="http://www.w3.org/2000/svg" viewBox="0 0 104.8 40.07"><path d="M34.3,38.31c-.89,.53-1.83,.99-2.8,1.36-.72,.26-1.47,.39-2.23,.4-1.3,.04-2.56-.42-3.53-1.28-.92-.79-1.44-1.95-1.42-3.16,0-1.23,.51-2.4,1.41-3.24,1.32-1.16,2.85-2.04,4.51-2.61-.48-.61-.89-1.29-1.2-2-.25-.62-.39-1.27-.4-1.94-.02-1.16,.49-2.26,1.39-3,1.01-.82,2.29-1.25,3.6-1.2,1.02-.04,2.03,.32,2.79,1,1.27,1.22,1.44,3.19,.41,4.61-.65,.79-1.43,1.47-2.3,2,.45,.54,.81,1.14,1.08,1.79,.46,1.03,.86,2.09,1.2,3.16l1.39-1.91c.16-.23,.29-.48,.4-.74,.08-.2,.12-.41,.12-.63,0-.3-.13-.58-.37-.76-.29-.2-.64-.3-1-.29v-.59h5.04v.58c-.59,.03-1.17,.2-1.68,.51-.63,.46-1.17,1.04-1.59,1.71l-2.1,2.92c.28,.87,.7,1.69,1.24,2.43,.33,.45,.84,.73,1.4,.75,.45,0,.87-.18,1.2-.48,.51-.47,.96-1,1.33-1.59l.4,.32c-.39,1.04-1.04,1.96-1.88,2.68-.76,.59-1.7,.9-2.66,.88-.74,.02-1.48-.12-2.16-.4-.63-.28-1.18-.72-1.59-1.28Zm-.45-.76c-.25-.49-.7-1.56-1.35-3.19-.49-1.34-1.13-2.62-1.89-3.82-1.41,.16-2.44,1.42-2.32,2.84,0,.57,.07,1.14,.22,1.69,.15,.58,.37,1.15,.65,1.68,.24,.5,.58,.94,1,1.3,.35,.28,.79,.43,1.24,.43,.34-.01,.68-.09,1-.23,.5-.2,.98-.43,1.45-.7Zm.28-9c.57-.38,1.06-.89,1.42-1.48,.31-.54,.47-1.16,.46-1.79,.04-.74-.16-1.47-.58-2.08-.4-.5-1.02-.77-1.66-.74-.56-.02-1.1,.18-1.52,.55-.39,.35-.61,.86-.59,1.39,.01,.42,.12,.83,.31,1.2,.28,.53,.61,1.02,1,1.47l1.16,1.48Z"/><path d="M17.1,18.66h-.59l-.31-.63h0c-.11-.26-.27-.4-.47-.4-.25,.04-.5,.12-.74,.22-1.79,.69-3.68,1.04-5.6,1.06-1.21,0-2.41-.21-3.54-.64-1.09-.4-2.08-1.02-2.92-1.81-.94-.88-1.68-1.95-2.17-3.14C.25,12.11,0,10.8,0,9.48c0-1.33,.25-2.66,.76-3.89,.49-1.19,1.23-2.27,2.17-3.15,.84-.79,1.84-1.41,2.92-1.81C6.98,.21,8.18,0,9.39,0c.82,0,1.64,.08,2.44,.24,.83,.17,1.64,.41,2.42,.73l.51,.23c.25,.13,.52,.22,.8,.26,.16-.02,.31-.1,.4-.24,.17-.22,.3-.47,.4-.73h.43V6.39h-.59c-.75-1.56-1.79-2.95-3.07-4.11-.96-.89-2.21-1.39-3.51-1.42-1.55,0-2.96,.89-3.64,2.29-.98,1.96-1.43,4.15-1.31,6.34-.13,2.19,.3,4.39,1.25,6.37,.71,1.39,2.17,2.25,3.73,2.18,1.3-.03,2.55-.51,3.54-1.36,1.36-1.18,2.5-2.59,3.36-4.17h.56v6.15Z"/><path d="M18.76,13.06c-.05-1.6,.61-3.13,1.8-4.2,2.69-2.17,6.54-2.17,9.23,0,2.32,2.23,2.4,5.91,.17,8.23-.06,.06-.11,.12-.17,.17-2.69,2.19-6.54,2.19-9.23,0-1.19-1.06-1.85-2.6-1.8-4.2Zm6.43,4.89c.86,.03,1.65-.46,2-1.25,.51-1.14,.74-2.39,.67-3.64,.07-1.25-.17-2.49-.68-3.63-.49-1.08-1.75-1.56-2.83-1.07-.47,.21-.85,.59-1.07,1.07-.51,1.15-.74,2.4-.67,3.65-.07,1.24,.16,2.47,.68,3.6,.33,.76,1.07,1.25,1.9,1.27Z"/><path d="M32.88,18.54v-.76h.47c.27,0,.54-.1,.73-.3,.16-.24,.23-.54,.2-.83v-7.89h-1.55l.44-1.2h1.11c.03-.93,.22-1.84,.58-2.7,.41-.97,.95-1.87,1.62-2.68,.5-.65,1.13-1.2,1.84-1.62C38.93,.21,39.62,.01,40.32,0c.69-.02,1.36,.21,1.89,.65,.48,.41,.75,1.01,.74,1.64,.02,.39-.12,.78-.4,1.06-.3,.28-.69,.42-1.1,.4-.35,0-.7-.09-1-.29-.3-.22-.53-.53-.66-.88-.09-.23-.15-.46-.19-.7-.09-.55-.31-.83-.63-.83s-.7,.28-.89,.84c-.23,.9-.32,1.83-.28,2.76v2.9h2.7l-.46,1.2h-2.24v7.87c-.03,.3,.05,.6,.21,.85,.18,.19,.44,.29,.7,.27h.84v.76l-6.67,.04Z"/><path d="M40.93,18.54v-.76h.47c.27,0,.54-.1,.73-.3,.16-.24,.23-.54,.2-.83v-7.89h-1.55l.45-1.2h1.1c.03-.93,.22-1.84,.58-2.7,.41-.97,.95-1.87,1.62-2.68,.51-.65,1.14-1.2,1.86-1.62C47,.21,47.69,.01,48.39,0c.69-.03,1.36,.21,1.89,.65,.48,.41,.75,1.01,.73,1.64,.03,.39-.12,.78-.4,1.06-.3,.28-.69,.42-1.1,.4-.35,0-.7-.09-1-.29-.3-.22-.53-.53-.66-.88-.08-.23-.14-.46-.18-.7-.1-.55-.31-.83-.64-.83s-.7,.28-.89,.84c-.22,.9-.32,1.83-.28,2.76v2.9h2.7l-.46,1.2h-2.24v7.87c-.02,.3,.05,.6,.21,.85,.18,.19,.44,.29,.7,.27h.85v.76l-6.69,.04Z"/><path d="M52.85,12.27v.36c-.06,1.06,.3,2.1,1,2.9,.72,.72,1.71,1.11,2.73,1.07,.7,0,1.38-.18,2-.51,.75-.45,1.43-1.02,2-1.68l.4,.46c-.51,1.19-1.32,2.23-2.36,3-.99,.68-2.17,1.03-3.37,1-1.6,.06-3.16-.53-4.31-1.65-1.12-1.11-1.73-2.63-1.68-4.21-.02-1.57,.62-3.07,1.77-4.13,1.17-1.12,2.74-1.72,4.36-1.68,2.8-.16,5.2,1.98,5.36,4.78v.26l-7.9,.03Zm0-.88h4.47v-.43c.04-.77-.15-1.54-.56-2.2-.34-.51-.92-.81-1.53-.8-.7-.03-1.37,.3-1.76,.89-.46,.76-.69,1.65-.65,2.54h.03Z"/><path d="M65.81,12.27v.36c-.06,1.06,.3,2.1,1,2.9,.72,.73,1.72,1.12,2.74,1.07,.7,0,1.38-.18,2-.51,.75-.45,1.43-1.02,2-1.68l.4,.46c-.51,1.19-1.32,2.23-2.36,3-.99,.68-2.17,1.03-3.37,1-1.6,.06-3.15-.54-4.3-1.65-1.12-1.11-1.73-2.63-1.68-4.21-.02-1.57,.62-3.07,1.78-4.13,1.18-1.11,2.75-1.7,4.37-1.65,2.79-.16,5.18,1.96,5.35,4.75v.03c0,.09,0,.17,0,.26h-7.93Zm0-.88h4.47v-.43c.04-.77-.15-1.54-.56-2.2-.34-.51-.92-.81-1.53-.8-.72-.05-1.41,.3-1.8,.9-.44,.77-.65,1.65-.6,2.53h.02Z"/><path d="M52.48,21.44h.43c1.1-.02,2.2,.03,3.29,.16,.62,.09,1.22,.27,1.78,.55,.7,.33,1.3,.85,1.72,1.5,.4,.64,.61,1.37,.61,2.12,.04,.99-.38,1.94-1.13,2.59-1.02,.78-2.21,1.3-3.48,1.5,1.46,.16,2.84,.73,4,1.64,.89,.79,1.38,1.93,1.34,3.12,0,.69-.14,1.37-.43,2-.29,.62-.73,1.17-1.27,1.6-.68,.53-1.47,.91-2.31,1.1-1.51,.27-3.04,.38-4.57,.33h-7v-.79h.52c.5,.01,.99-.11,1.42-.35,.27-.26,.39-.63,.35-1v-14.08c.04-.37-.09-.74-.35-1-.43-.24-.91-.36-1.4-.34l-.54-.05v-.61h7.02Zm-.66,8.01h.8c.98,.05,1.94-.31,2.64-1,.65-.77,.97-1.77,.9-2.77,.05-.93-.22-1.85-.77-2.61-.55-.64-1.36-.99-2.2-.94-.37-.03-.74,.07-1.05,.27-.23,.23-.35,.55-.32,.88v6.17Zm0,.92v7c-.03,.37,.09,.73,.34,1,.34,.22,.75,.33,1.16,.29,.94,.06,1.85-.33,2.45-1.05,.62-.9,.92-1.98,.84-3.07,.08-1.15-.28-2.29-1-3.19-.77-.77-1.84-1.17-2.92-1.08l-.87,.1Z"/><path d="M67.24,28.36v9.35c-.03,.29,.04,.59,.19,.84,.19,.18,.45,.28,.71,.28h.45v.75h-6.27v-.72h.42c.27,0,.53-.1,.73-.28,.16-.25,.24-.55,.21-.85v-6.63c.01-.18-.02-.36-.1-.52-.09-.09-.21-.16-.34-.19l-.92-.36v-.54c.65-.06,1.28-.17,1.91-.34,.84-.22,1.66-.48,2.47-.79h.54Zm-.07-4.75c0,1.1-.9,2-2,2-.52,.01-1.03-.2-1.39-.58-.76-.78-.76-2.02,0-2.8,.77-.74,2-.74,2.77,0h0c.38,.36,.61,.86,.62,1.38Z"/><path d="M74.23,21.08v12.36l2.36-1.76c.31-.21,.59-.46,.82-.75,.15-.2,.23-.43,.23-.68,.02-.24-.08-.48-.27-.63-.26-.17-.57-.26-.88-.27v-.73h5.59v.75c-.56,0-1.11,.08-1.64,.26-.56,.25-1.07,.58-1.52,1l-.79,.66,3.19,6.51c.13,.32,.34,.6,.6,.83,.24,.15,.52,.23,.8,.24v.76h-5.89v-.77l.48-.14c.11-.02,.2-.09,.25-.18,.07-.1,.1-.21,.1-.33,0-.07,0-.13,0-.2-.02-.06-.04-.12-.08-.17l-2.19-4.28-1.2,1v3.19c-.03,.3,.04,.6,.2,.85,.2,.18,.46,.29,.73,.29h.44v.76h-6.17v-.79h.45c.27,0,.53-.11,.72-.29,.16-.25,.23-.55,.2-.85v-13.86c.02-.17,0-.35-.08-.51-.1-.1-.22-.17-.36-.2l-.93-.39v-.54c.68-.06,1.35-.19,2-.37,.8-.21,1.59-.47,2.37-.77h.47Z"/><path d="M86.86,33.34v.36c-.07,1.06,.29,2.1,1,2.9,.72,.73,1.71,1.11,2.73,1.07,.7,0,1.38-.18,2-.51,.75-.45,1.43-1.02,2-1.68l.4,.46c-.51,1.19-1.32,2.23-2.36,3-.99,.68-2.17,1.03-3.37,1-1.6,.06-3.16-.53-4.31-1.64-1.07-1.12-1.64-2.64-1.56-4.19-.03-1.57,.62-3.07,1.78-4.12,1.16-1.13,2.74-1.74,4.36-1.69,2.8-.16,5.19,1.97,5.36,4.76v.02c0,.09,0,.17,0,.26h-8.03Zm0-.87h4.47v-.44c.05-.77-.15-1.54-.56-2.2-.34-.51-.92-.81-1.53-.8-.7-.01-1.36,.34-1.73,.93-.47,.75-.7,1.62-.68,2.51h.03Z"/><path d="M96.49,39v-3.59h.4c.29,1.05,.84,2.01,1.6,2.79,.61,.63,1.44,.99,2.32,1,.42,.02,.84-.11,1.17-.38,.29-.25,.45-.62,.43-1,0-.66-.66-1.39-2-2.19l-.42-.26-.36-.18c-2.09-1-3.14-2.14-3.13-3.34-.01-.97,.41-1.9,1.15-2.53,.77-.67,1.77-1.03,2.79-1,.6,0,1.2,.06,1.78,.19,.53,.13,1.04,.33,1.52,.59l.2,3.2h-.4c-.34-.88-.87-1.67-1.54-2.33-.51-.51-1.19-.81-1.91-.85-.32-.01-.64,.1-.88,.32-.22,.22-.34,.52-.33,.83,0,.6,.65,1.2,1.95,1.79l.6,.28c.99,.33,1.88,.9,2.6,1.66,.54,.71,.81,1.58,.77,2.47,.03,.97-.39,1.91-1.14,2.53-.85,.68-1.91,1.04-3,1-.67,0-1.35-.09-2-.25-.74-.19-1.47-.44-2.17-.75Z"/></svg>