<?xml version="1.0" encoding="UTF-8"?>
<svg id="Artboard_26" data-name="Artboard 26" xmlns="http://www.w3.org/2000/svg" viewBox="0 0 1300.34 230.71">
  <defs>
    <style>
      .cls-1 {
        fill: #061650;
        stroke-width: 0px;
      }

      .cls-2 {
        fill: none;
        stroke: #061650;
        stroke-miterlimit: 10;
        stroke-width: 7px;
      }
    </style>
  </defs>
  <line class="cls-2" x1="277.08" y1="16.32" x2="277.08" y2="222.32"/>
  <g>
    <path class="cls-1" d="m351.28,197.18v11.45h-6.05v-32.54h10.6c2.17,0,4.06.26,5.65.77s2.9,1.22,3.94,2.14,1.8,2.01,2.29,3.29c.5,1.28.74,2.67.74,4.19s-.26,3.02-.79,4.33-1.31,2.44-2.36,3.39-2.36,1.68-3.94,2.21c-1.58.53-3.42.79-5.54.79h-4.54v-.02Zm0-4.72h4.54c1.11,0,2.08-.14,2.9-.42s1.51-.67,2.05-1.19c.54-.52.95-1.15,1.21-1.89.27-.74.41-1.57.41-2.49s-.14-1.66-.41-2.36-.67-1.3-1.21-1.8c-.54-.5-1.22-.87-2.05-1.14-.83-.26-1.79-.39-2.9-.39h-4.54v11.68Z"/>
    <path class="cls-1" d="m379.2,203.64h13.03v5h-19.08v-32.54h6.05v27.54h0Z"/>
    <path class="cls-1" d="m425.01,208.64h-4.68c-.52,0-.96-.13-1.29-.39s-.58-.59-.73-.98l-2.43-6.64h-13.48l-2.43,6.64c-.12.34-.36.66-.71.94-.35.29-.78.43-1.29.43h-4.7l12.78-32.54h6.19l12.78,32.54h0Zm-21.06-12.29h10.37l-3.96-10.82c-.18-.48-.38-1.05-.6-1.7s-.43-1.36-.64-2.13c-.21.76-.42,1.48-.62,2.14-.2.66-.4,1.24-.6,1.73l-3.96,10.78h.01Z"/>
    <path class="cls-1" d="m432.21,176.14c.18.02.34.07.48.13s.28.17.42.29c.13.13.29.3.45.51l17.08,21.76c-.06-.53-.1-1.04-.12-1.54s-.04-.97-.04-1.41v-19.78h5.33v32.54h-3.13c-.48,0-.88-.08-1.19-.22-.32-.15-.62-.42-.92-.81l-17.01-21.67c.04.48.08.96.1,1.43.02.47.03.9.03,1.29v19.98h-5.33v-32.54h3.17c.27,0,.5,0,.68.03h0Z"/>
    <path class="cls-1" d="m466.23,176.14c.18.02.34.07.48.13s.28.17.42.29c.13.13.29.3.45.51l17.08,21.76c-.06-.53-.1-1.04-.12-1.54s-.04-.97-.04-1.41v-19.78h5.33v32.54h-3.13c-.48,0-.88-.08-1.19-.22-.32-.15-.62-.42-.92-.81l-17.01-21.67c.04.48.08.96.1,1.43.02.47.03.9.03,1.29v19.98h-5.33v-32.54h3.17c.27,0,.5,0,.68.03h0Z"/>
    <path class="cls-1" d="m503.22,208.64h-6.08v-32.54h6.08v32.54h0Z"/>
    <path class="cls-1" d="m514.38,176.14c.18.02.34.07.48.13s.28.17.42.29c.14.13.29.3.45.51l17.08,21.76c-.06-.53-.1-1.04-.12-1.54s-.03-.97-.03-1.41v-19.78h5.33v32.54h-3.13c-.48,0-.88-.08-1.19-.22-.31-.15-.62-.42-.92-.81l-17.01-21.67c.04.48.08.96.1,1.43.02.47.03.9.03,1.29v19.98h-5.33v-32.54h3.17c.27,0,.49,0,.68.03h-.01Z"/>
    <path class="cls-1" d="m559.49,204.18c1.37,0,2.55-.12,3.57-.37,1.01-.25,1.98-.59,2.89-1.02v-5.92h-4.07c-.39,0-.7-.11-.92-.33s-.34-.48-.34-.8v-3.42h10.82v13.16c-.83.6-1.69,1.12-2.58,1.56s-1.85.81-2.86,1.09c-1.01.29-2.1.5-3.25.64-1.16.14-2.4.21-3.73.21-2.37,0-4.55-.41-6.55-1.24-1.99-.82-3.72-1.97-5.17-3.44-1.46-1.47-2.59-3.22-3.41-5.26-.82-2.04-1.23-4.27-1.23-6.68s.4-4.69,1.19-6.73,1.92-3.79,3.39-5.26,3.24-2.61,5.32-3.42c2.09-.81,4.43-1.21,7.02-1.21s4.95.39,6.89,1.18,3.59,1.81,4.94,3.07l-1.76,2.75c-.34.55-.8.83-1.37.83-.36,0-.73-.12-1.1-.36-.48-.29-.97-.57-1.47-.86-.5-.28-1.06-.53-1.67-.74s-1.29-.38-2.05-.52-1.63-.2-2.62-.2c-1.61,0-3.06.27-4.35.81-1.3.54-2.4,1.31-3.32,2.32-.92,1-1.62,2.21-2.12,3.62-.5,1.41-.74,2.98-.74,4.72,0,1.88.26,3.54.79,5.01.52,1.46,1.26,2.7,2.21,3.7.94,1,2.07,1.77,3.38,2.31,1.3.53,2.73.8,4.27.8h0Z"/>
    <path class="cls-1" d="m644.13,197.18v11.45h-6.05v-32.54h10.6c2.18,0,4.06.26,5.65.77s2.9,1.22,3.94,2.14,1.8,2.01,2.29,3.29.74,2.67.74,4.19-.26,3.02-.79,4.33-1.31,2.44-2.36,3.39-2.36,1.68-3.94,2.21c-1.57.53-3.42.79-5.54.79h-4.54v-.02Zm0-4.72h4.54c1.11,0,2.08-.14,2.9-.42.83-.28,1.51-.67,2.05-1.19s.95-1.15,1.21-1.89c.27-.74.4-1.57.4-2.49s-.13-1.66-.4-2.36-.68-1.3-1.21-1.8c-.54-.5-1.22-.87-2.05-1.14-.82-.26-1.79-.39-2.9-.39h-4.54v11.68Z"/>
    <path class="cls-1" d="m672.26,195.92v12.71h-6.05v-32.54h9.92c2.22,0,4.12.23,5.7.69s2.88,1.1,3.89,1.92,1.76,1.81,2.23,2.96c.47,1.15.71,2.41.71,3.79,0,1.09-.16,2.13-.48,3.1-.32.98-.79,1.86-1.4,2.66s-1.36,1.49-2.25,2.09-1.91,1.08-3.05,1.44c.77.44,1.43,1.06,1.98,1.87l8.14,12.01h-5.44c-.53,0-.97-.1-1.34-.32-.37-.21-.68-.51-.93-.9l-6.84-10.42c-.26-.39-.54-.67-.84-.83-.31-.17-.76-.25-1.36-.25h-2.59v.02Zm0-4.34h3.78c1.14,0,2.13-.14,2.98-.43s1.54-.68,2.09-1.18c.55-.5.96-1.1,1.23-1.79.27-.69.41-1.45.41-2.27,0-1.65-.54-2.92-1.63-3.8s-2.75-1.33-4.98-1.33h-3.87v10.8h-.01Z"/>
    <path class="cls-1" d="m725.6,192.37c0,2.38-.4,4.59-1.19,6.63-.79,2.03-1.91,3.79-3.35,5.28s-3.17,2.64-5.2,3.48c-2.03.83-4.27,1.25-6.73,1.25s-4.71-.42-6.74-1.25c-2.03-.83-3.77-1.99-5.22-3.48-1.45-1.48-2.57-3.24-3.36-5.28-.8-2.03-1.19-4.24-1.19-6.63s.4-4.59,1.19-6.63c.79-2.03,1.92-3.79,3.36-5.28s3.19-2.64,5.22-3.48c2.03-.83,4.28-1.25,6.74-1.25s4.7.42,6.73,1.26,3.76,2,5.2,3.48,2.56,3.23,3.35,5.27,1.19,4.24,1.19,6.63Zm-6.21,0c0-1.79-.24-3.39-.71-4.8-.47-1.42-1.15-2.62-2.04-3.61-.88-.99-1.96-1.75-3.23-2.27-1.27-.52-2.7-.79-4.29-.79s-3.02.26-4.3.79c-1.27.53-2.36,1.28-3.25,2.27s-1.58,2.19-2.06,3.61-.72,3.02-.72,4.8.24,3.39.72,4.8c.48,1.42,1.17,2.62,2.06,3.6s1.98,1.74,3.25,2.26c1.28.53,2.71.79,4.3.79s3.02-.26,4.29-.79c1.27-.52,2.34-1.28,3.23-2.26.89-.98,1.56-2.18,2.04-3.6.47-1.42.71-3.02.71-4.8Z"/>
    <path class="cls-1" d="m751.55,176.1v4.97h-9.79v27.56h-6.05v-27.56h-9.83v-4.97h25.67Z"/>
    <path class="cls-1" d="m775.91,176.1v4.82h-14.42v9.02h11.36v4.66h-11.36v9.2h14.42v4.84h-20.52v-32.54h20.52Z"/>
    <path class="cls-1" d="m803.52,200.96c.33,0,.62.13.86.38l2.38,2.59c-1.32,1.63-2.94,2.89-4.87,3.76s-4.24,1.31-6.94,1.31c-2.42,0-4.59-.41-6.51-1.24-1.93-.82-3.57-1.97-4.94-3.44s-2.41-3.22-3.14-5.26c-.73-2.04-1.09-4.27-1.09-6.68s.41-4.68,1.22-6.72c.81-2.03,1.95-3.78,3.42-5.25s3.23-2.61,5.28-3.43c2.05-.82,4.31-1.23,6.78-1.23s4.53.39,6.33,1.16c1.81.77,3.36,1.8,4.65,3.07l-2.03,2.81c-.12.18-.27.34-.46.47s-.45.2-.78.2-.7-.13-1.06-.4c-.36-.27-.82-.56-1.37-.88-.56-.32-1.26-.61-2.11-.88s-1.92-.4-3.23-.4c-1.53,0-2.94.27-4.22.8-1.28.53-2.38,1.29-3.31,2.28s-1.64,2.19-2.16,3.61c-.52,1.42-.78,3.01-.78,4.78s.26,3.46.78,4.88,1.22,2.62,2.1,3.6c.88.98,1.93,1.72,3.13,2.24s2.49.78,3.87.78c.82,0,1.57-.05,2.24-.14s1.28-.23,1.85-.43c.56-.2,1.09-.45,1.6-.75.5-.31,1-.69,1.5-1.14.15-.13.31-.24.47-.33s.34-.12.54-.12h0Z"/>
    <path class="cls-1" d="m834.26,176.1v4.97h-9.79v27.56h-6.05v-27.56h-9.83v-4.97h25.67Z"/>
    <path class="cls-1" d="m844.92,208.64h-6.07v-32.54h6.07v32.54h0Z"/>
    <path class="cls-1" d="m856.08,176.14c.18.02.34.07.48.13s.28.17.42.29c.13.13.29.3.45.51l17.08,21.76c-.06-.53-.1-1.04-.12-1.54s-.04-.97-.04-1.41v-19.78h5.33v32.54h-3.13c-.48,0-.88-.08-1.19-.22-.32-.15-.62-.42-.92-.81l-17.01-21.67c.04.48.08.96.1,1.43.02.47.03.9.03,1.29v19.98h-5.33v-32.54h3.17c.27,0,.5,0,.68.03h0Z"/>
    <path class="cls-1" d="m901.19,204.18c1.37,0,2.55-.12,3.57-.37,1.01-.25,1.98-.59,2.89-1.02v-5.92h-4.07c-.39,0-.7-.11-.92-.33s-.34-.48-.34-.8v-3.42h10.82v13.16c-.83.6-1.69,1.12-2.58,1.56s-1.85.81-2.86,1.09c-1.01.29-2.1.5-3.25.64-1.16.14-2.4.21-3.73.21-2.37,0-4.55-.41-6.55-1.24-1.99-.82-3.72-1.97-5.17-3.44-1.46-1.47-2.59-3.22-3.41-5.26-.82-2.04-1.23-4.27-1.23-6.68s.4-4.69,1.19-6.73,1.92-3.79,3.39-5.26,3.24-2.61,5.32-3.42c2.09-.81,4.43-1.21,7.02-1.21s4.95.39,6.89,1.18,3.59,1.81,4.94,3.07l-1.76,2.75c-.34.55-.8.83-1.37.83-.36,0-.73-.12-1.1-.36-.48-.29-.97-.57-1.47-.86-.5-.28-1.06-.53-1.67-.74s-1.29-.38-2.05-.52-1.63-.2-2.62-.2c-1.61,0-3.06.27-4.35.81-1.3.54-2.4,1.31-3.32,2.32-.92,1-1.62,2.21-2.12,3.62-.5,1.41-.74,2.98-.74,4.72,0,1.88.26,3.54.79,5.01.52,1.46,1.26,2.7,2.21,3.7.94,1,2.07,1.77,3.38,2.31,1.3.53,2.73.8,4.27.8h0Z"/>
    <path class="cls-1" d="m968.46,197.18v11.45h-6.05v-32.54h10.6c2.18,0,4.06.26,5.65.77s2.9,1.22,3.94,2.14,1.8,2.01,2.29,3.29.74,2.67.74,4.19-.26,3.02-.79,4.33-1.31,2.44-2.36,3.39-2.36,1.68-3.94,2.21c-1.57.53-3.42.79-5.54.79h-4.54v-.02Zm0-4.72h4.54c1.11,0,2.08-.14,2.9-.42.83-.28,1.51-.67,2.05-1.19s.95-1.15,1.21-1.89c.27-.74.4-1.57.4-2.49s-.13-1.66-.4-2.36-.68-1.3-1.21-1.8c-.54-.5-1.22-.87-2.05-1.14-.82-.26-1.79-.39-2.9-.39h-4.54v11.68Z"/>
    <path class="cls-1" d="m1010.86,176.1v4.82h-14.42v9.02h11.36v4.66h-11.36v9.2h14.42v4.84h-20.52v-32.54h20.52Z"/>
    <path class="cls-1" d="m1044.7,208.64h-4.68c-.53,0-.96-.13-1.29-.39-.34-.26-.58-.59-.73-.98l-2.43-6.64h-13.48l-2.43,6.64c-.12.34-.36.66-.71.94-.35.29-.78.43-1.29.43h-4.7l12.78-32.54h6.19l12.78,32.54h0Zm-21.07-12.29h10.37l-3.96-10.82c-.18-.48-.38-1.05-.6-1.7s-.43-1.36-.64-2.13c-.21.76-.42,1.48-.62,2.14s-.4,1.24-.6,1.73l-3.96,10.78h0Z"/>
    <path class="cls-1" d="m1069.27,200.96c.33,0,.61.13.85.38l2.38,2.59c-1.32,1.63-2.94,2.89-4.87,3.76s-4.24,1.31-6.94,1.31c-2.41,0-4.59-.41-6.51-1.24-1.93-.82-3.57-1.97-4.94-3.44s-2.41-3.22-3.14-5.26-1.09-4.27-1.09-6.68.4-4.68,1.21-6.72c.81-2.03,1.95-3.78,3.42-5.25s3.23-2.61,5.28-3.43c2.05-.82,4.31-1.23,6.78-1.23s4.53.39,6.33,1.16c1.81.77,3.36,1.8,4.65,3.07l-2.03,2.81c-.12.18-.27.34-.46.47s-.45.2-.78.2-.7-.13-1.06-.4c-.36-.27-.82-.56-1.37-.88s-1.26-.61-2.1-.88c-.85-.27-1.92-.4-3.23-.4-1.53,0-2.94.27-4.22.8s-2.38,1.29-3.31,2.28c-.92.99-1.64,2.19-2.16,3.61s-.78,3.01-.78,4.78.26,3.46.78,4.88,1.22,2.62,2.11,3.6c.88.98,1.93,1.72,3.13,2.24s2.49.78,3.87.78c.83,0,1.57-.05,2.24-.14s1.28-.23,1.84-.43c.56-.2,1.1-.45,1.6-.75s1-.69,1.5-1.14c.15-.13.31-.24.47-.33s.35-.12.54-.12h.01Z"/>
    <path class="cls-1" d="m1097.59,176.1v4.82h-14.42v9.02h11.36v4.66h-11.36v9.2h14.42v4.84h-20.52v-32.54h20.52Z"/>
    <path class="cls-1" d="m1142.73,192.37c0,2.38-.4,4.59-1.19,6.63-.79,2.03-1.91,3.79-3.35,5.28s-3.17,2.64-5.2,3.48c-2.03.83-4.27,1.25-6.73,1.25s-4.71-.42-6.74-1.25-3.77-1.99-5.22-3.48c-1.45-1.48-2.57-3.24-3.36-5.28-.79-2.03-1.19-4.24-1.19-6.63s.4-4.59,1.19-6.63,1.92-3.79,3.36-5.28,3.19-2.64,5.22-3.48c2.03-.83,4.28-1.25,6.74-1.25s4.7.42,6.73,1.26,3.76,2,5.2,3.48,2.56,3.23,3.35,5.27,1.19,4.24,1.19,6.63Zm-6.21,0c0-1.79-.24-3.39-.71-4.8-.47-1.42-1.15-2.62-2.04-3.61s-1.96-1.75-3.23-2.27-2.7-.79-4.29-.79-3.02.26-4.3.79-2.36,1.28-3.25,2.27-1.58,2.19-2.06,3.61c-.48,1.42-.72,3.02-.72,4.8s.24,3.39.72,4.8c.48,1.42,1.17,2.62,2.06,3.6s1.98,1.74,3.25,2.26c1.28.53,2.71.79,4.3.79s3.02-.26,4.29-.79c1.27-.52,2.34-1.28,3.23-2.26s1.56-2.18,2.04-3.6c.47-1.42.71-3.02.71-4.8Z"/>
    <path class="cls-1" d="m1168.02,176.1v4.82h-14.42v9.63h12.17v4.84h-12.17v13.25h-6.1v-32.54h20.52Z"/>
    <path class="cls-1" d="m1198.49,196.63c.22.52.43,1.04.64,1.56.21-.54.43-1.07.65-1.6.23-.53.46-1.03.72-1.51l9.63-18.02c.12-.23.24-.41.37-.54.13-.13.27-.23.43-.29s.33-.1.53-.11c.2,0,.43-.02.7-.02h4.57v32.54h-5.33v-21.01c0-.39.01-.82.03-1.28.02-.46.06-.94.1-1.42l-9.83,18.45c-.23.42-.52.75-.88.98s-.78.35-1.26.35h-.83c-.48,0-.9-.12-1.26-.35s-.65-.56-.88-.98l-9.97-18.52c.06.5.1.98.12,1.45s.03.91.03,1.32v21.01h-5.33v-32.54h4.57c.27,0,.5,0,.7.02s.37.05.53.11.3.16.44.29.26.31.38.54l9.72,18.07c.26.48.49.98.71,1.5h0Z"/>
    <path class="cls-1" d="m1230.12,208.64h-6.07v-32.54h6.07v32.54h0Z"/>
    <path class="cls-1" d="m1241.28,176.14c.18.02.34.07.48.13s.28.17.42.29c.13.13.29.3.45.51l17.08,21.76c-.06-.53-.1-1.04-.12-1.54s-.04-.97-.04-1.41v-19.78h5.33v32.54h-3.13c-.48,0-.88-.08-1.19-.22-.32-.15-.62-.42-.92-.81l-17.01-21.67c.04.48.08.96.1,1.43.02.47.03.9.03,1.29v19.98h-5.33v-32.54h3.17c.27,0,.5,0,.68.03h0Z"/>
    <path class="cls-1" d="m1300.34,192.37c0,2.38-.4,4.58-1.19,6.57s-1.91,3.71-3.35,5.15c-1.44,1.44-3.17,2.56-5.2,3.35-2.03.79-4.27,1.19-6.73,1.19h-12.42v-32.54h12.42c2.46,0,4.7.4,6.73,1.2,2.02.8,3.76,1.92,5.2,3.35s2.56,3.15,3.35,5.14c.79,2,1.19,4.19,1.19,6.57v.02Zm-6.19,0c0-1.79-.24-3.39-.72-4.8-.48-1.42-1.16-2.62-2.05-3.6s-1.96-1.74-3.23-2.26c-1.27-.52-2.7-.79-4.29-.79h-6.32v22.9h6.32c1.59,0,3.02-.26,4.29-.79,1.27-.52,2.34-1.28,3.23-2.26s1.57-2.18,2.05-3.6c.48-1.42.72-3.02.72-4.8Z"/>
  </g>
  <line class="cls-2" x1="1297.5" y1="144.97" x2="345.69" y2="145.32"/>
  <g>
    <path class="cls-1" d="m145.29,210.18c16.81,30.62,50.29,23.92,61.45,0-18.18,7.07-39.16,5.53-61.45,0Z"/>
    <path class="cls-1" d="m53.17,77.08c1.42,0,3.69.28,5.97.99,4.97,1.56,8.38,4.97,11.79,10.65l19.05,31.57c3.26-.75,6.46-1.25,9.64-1.51v-.26l3.78.06,3.75-.06v.26c1.91.16,3.84.4,5.78.74l21.2-30.51c4.26-6.25,7.1-10.23,10.37-11.08,1.99-.57,3.69-.85,5.11-.85s2.27-.43,2.27-1.28-.99-1.28-2.56-1.28c-5.25,0-11.08.43-13.92.43s-8.66-.43-14.2-.43c-1.99,0-2.98.43-2.98,1.28,0,.99.85,1.28,1.7,1.28,1.14,0,3.12,0,4.54.43s2.41,1.56,2.41,2.56c0,1.14-.43,3.41-1.56,5.4-2.13,3.98-15.2,23.72-19.32,29.97-5.54-9.66-11.93-20.03-18.04-31.39-.85-1.56-1.42-3.27-1.42-4.12s.43-1.85,1.7-2.27c1.14-.43,2.98-.57,3.83-.57,1.28,0,2.13-.28,2.13-1.28s-.85-1.28-2.84-1.28c-5.26,0-13.21.43-15.2.43-6.68,0-18.18-.43-21.59-.43-1.85,0-2.84.28-2.84,1.14,0,.99.57,1.42,1.42,1.42h.03Z"/>
    <path class="cls-1" d="m154.71,181.89c1.56,0,2.7-.43,2.7-1.42,0-.85-.85-1.14-1.85-1.14-1.28,0-2.98-.14-5.4-.85-3.69-1.14-5.82-2.84-8.24-5.97-2.49-3.18-14.52-23.01-23.06-37-3.85-1.22-7.66-2.14-11.43-2.75-1.34-.22-2.71-.33-4.07-.33s-2.73.11-4.07.33c-2.51.41-5.05.96-7.6,1.64l-23.49,33.57c-4.83,6.82-7.53,9.52-11.65,10.65-2.13.57-4.26.71-5.25.71-1.14,0-1.99.43-1.99,1.28s.71,1.28,2.13,1.28h2.41c2.27,0,9.23-.43,11.93-.43,3.55,0,12.5.43,13.35.43h2.56c1.85,0,2.84-.28,2.84-1.28,0-.85-.85-1.28-1.7-1.28-1.14,0-2.41-.14-3.27-.28-1.28-.28-2.56-1.14-2.7-2.41-.14-1.56.57-3.69,1.99-5.96l21.02-33.94c6.53,10.65,14.63,24.71,22.44,38.63.99,1.85.43,3.12-.28,3.27-1.28.28-1.99.71-1.99,1.56,0,.99,1.14,1.28,4.83,1.42,10.94.28,22.16.28,25.56.28h4.28Z"/>
    <path class="cls-1" d="m28.9,157.42l-22.07,50.86h3.65l18.42-42.46.49-1.13v45.48h3.35v-45.45l.49,1.1,18.42,42.46h3.65l-22.07-50.86-.49-1.03v-3.3c2.64-.9,4.53-3.39,4.53-6.34v-1.71h22.39c12.91-8.3,25.92-13.79,39.05-15.92,3.08-.5,6.23-.5,9.32,0,13.13,2.13,26.14,7.62,39.05,15.92h22.39v1.71c0,2.94,1.9,5.44,4.53,6.34v3.3l-.49,1.03-22.07,50.86h3.65l18.42-42.46.49-1.1v45.45h3.35v-45.48l.49,1.13,18.42,42.46h3.65l-22.07-50.86-.49-1.42v-2.66c3.13-.56,5.51-3.3,5.51-6.59v-1.71h6.92c1.64,0,2.97-1.33,2.97-2.97s-1.33-2.97-2.97-2.97h-40.33c-14.69-9.41-29.78-16.41-46-16.83h-.16c-16.22.42-31.32,7.42-46,16.83H16.96c-1.64,0-2.97,1.33-2.97,2.97s1.33,2.97,2.97,2.97h6.92v1.71c0,3.29,2.38,6.03,5.51,6.59v2.66l-.49,1.42Z"/>
    <path class="cls-1" d="m0,210.18c11.16,23.92,44.64,30.62,61.45,0-22.29,5.53-43.28,7.07-61.45,0Z"/>
  </g>
  <path class="cls-1" d="m126.92,11.66c12.83,0,22.52,2.82,29.09,8.45s9.85,13.24,9.85,22.84-4.43,17.1-13.29,22.52c-7.72,4.8-18.04,7.2-30.97,7.2h-13.14v41.92h14.55v4.85h-43.48v-4.85h14.7V16.51h-14.7v-4.85h47.39,0Zm14.08,50.99c5.94-4.48,8.81-11.21,8.6-20.18-.21-8.97-2.27-15.54-6.18-19.71-3.91-4.17-10.04-6.26-18.38-6.26h-16.58v51.93h13.45c7.82,0,14.18-1.93,19.08-5.79h0Z"/>
  <circle class="cls-1" cx="605.43" cy="194.35" r="4.32"/>
  <circle class="cls-1" cx="936.43" cy="194.35" r="4.32"/>
  <g>
    <path class="cls-1" d="m394.09,21.06c11.95,0,20.96,2.62,27.04,7.85,6.07,5.23,9.11,12.7,9.11,22.39,0,4.46-.84,8.57-2.52,12.31-1.68,3.74-4.08,6.97-7.2,9.68-3.12,2.71-6.91,4.82-11.38,6.34-4.46,1.51-9.48,2.27-15.05,2.27h-18.94v41.04h-7.42V21.06h26.35Zm0,54.94c4.46,0,8.47-.62,12.02-1.87,3.55-1.25,6.56-2.98,9.04-5.18,2.47-2.21,4.37-4.81,5.69-7.81,1.32-3,1.98-6.28,1.98-9.83,0-7.82-2.4-13.85-7.2-18.07-4.8-4.22-11.98-6.34-21.53-6.34h-18.94v49.1h18.94Z"/>
    <path class="cls-1" d="m446.14,61.45c3.74-3.74,7.68-6.58,11.81-8.5,4.13-1.92,8.81-2.88,14.04-2.88,3.84,0,7.2.61,10.08,1.84,2.88,1.22,5.27,2.98,7.16,5.26,1.9,2.28,3.32,5.04,4.28,8.28.96,3.24,1.44,6.85,1.44,10.84v46.66h-2.74c-1.44,0-2.33-.67-2.66-2.02l-1.01-9.22c-1.97,1.92-3.92,3.65-5.87,5.18-1.94,1.54-3.97,2.83-6.08,3.89-2.11,1.06-4.39,1.87-6.84,2.45-2.45.58-5.14.86-8.06.86-2.45,0-4.82-.36-7.13-1.08-2.3-.72-4.36-1.82-6.16-3.31-1.8-1.49-3.24-3.39-4.32-5.72-1.08-2.33-1.62-5.12-1.62-8.39,0-3.02.86-5.83,2.59-8.42,1.73-2.59,4.44-4.85,8.14-6.77,3.7-1.92,8.44-3.46,14.22-4.61,5.78-1.15,12.73-1.82,20.84-2.02v-7.49c0-6.62-1.43-11.72-4.28-15.3-2.86-3.58-7.09-5.36-12.71-5.36-3.46,0-6.4.48-8.82,1.44-2.42.96-4.48,2.02-6.16,3.17-1.68,1.15-3.05,2.21-4.1,3.17-1.06.96-1.94,1.44-2.66,1.44-.53,0-.96-.12-1.3-.36-.34-.24-.62-.55-.86-.94l-1.22-2.09Zm42.12,26.86c-6.82.24-12.68.78-17.6,1.62-4.92.84-8.98,1.98-12.17,3.42-3.19,1.44-5.56,3.16-7.09,5.15-1.54,1.99-2.3,4.26-2.3,6.8,0,2.4.4,4.48,1.19,6.23.79,1.75,1.85,3.19,3.17,4.32,1.32,1.13,2.84,1.96,4.57,2.48s3.53.79,5.4.79c2.78,0,5.34-.3,7.67-.9,2.33-.6,4.49-1.44,6.48-2.52,1.99-1.08,3.85-2.36,5.58-3.85,1.73-1.49,3.43-3.1,5.11-4.82v-18.72Z"/>
    <path class="cls-1" d="m573.3,122.94h-6.55c-.67,0-1.2-.2-1.58-.61-.38-.41-.7-.8-.94-1.19l-21.74-31.75c-.19.86-.55,1.7-1.08,2.52l-20.74,29.23c-.34.43-.68.84-1.04,1.22-.36.38-.83.58-1.4.58h-6.19l26.06-36.65-25.06-34.99h6.55c.67,0,1.18.14,1.51.43.34.29.62.62.86,1.01l21.02,30.31c.1-.38.25-.79.47-1.22.22-.43.44-.86.68-1.3l19.66-27.72c.29-.43.6-.79.94-1.08.34-.29.77-.43,1.3-.43h6.26l-24.98,34.56,25.99,37.08Z"/>
    <path class="cls-1" d="m692.02,116.68v6.26h-55.66V21.06h7.42v95.62h48.24Z"/>
    <path class="cls-1" d="m706.85,61.45c3.74-3.74,7.68-6.58,11.81-8.5,4.13-1.92,8.81-2.88,14.04-2.88,3.84,0,7.2.61,10.08,1.84,2.88,1.22,5.27,2.98,7.16,5.26,1.9,2.28,3.32,5.04,4.28,8.28.96,3.24,1.44,6.85,1.44,10.84v46.66h-2.74c-1.44,0-2.33-.67-2.66-2.02l-1.01-9.22c-1.97,1.92-3.92,3.65-5.87,5.18-1.94,1.54-3.97,2.83-6.08,3.89-2.11,1.06-4.39,1.87-6.84,2.45s-5.14.86-8.06.86c-2.45,0-4.82-.36-7.13-1.08s-4.36-1.82-6.16-3.31c-1.8-1.49-3.24-3.39-4.32-5.72-1.08-2.33-1.62-5.12-1.62-8.39,0-3.02.86-5.83,2.59-8.42,1.73-2.59,4.44-4.85,8.14-6.77,3.7-1.92,8.44-3.46,14.22-4.61,5.78-1.15,12.73-1.82,20.84-2.02v-7.49c0-6.62-1.43-11.72-4.28-15.3-2.86-3.58-7.09-5.36-12.71-5.36-3.46,0-6.4.48-8.82,1.44-2.42.96-4.48,2.02-6.16,3.17-1.68,1.15-3.05,2.21-4.1,3.17-1.06.96-1.94,1.44-2.66,1.44-.53,0-.96-.12-1.3-.36-.34-.24-.62-.55-.86-.94l-1.22-2.09Zm42.12,26.86c-6.82.24-12.68.78-17.6,1.62-4.92.84-8.98,1.98-12.17,3.42-3.19,1.44-5.56,3.16-7.09,5.15-1.54,1.99-2.3,4.26-2.3,6.8,0,2.4.4,4.48,1.19,6.23.79,1.75,1.85,3.19,3.17,4.32,1.32,1.13,2.84,1.96,4.57,2.48,1.73.53,3.53.79,5.4.79,2.78,0,5.34-.3,7.67-.9,2.33-.6,4.49-1.44,6.48-2.52,1.99-1.08,3.85-2.36,5.58-3.85,1.73-1.49,3.43-3.1,5.11-4.82v-18.72Z"/>
    <path class="cls-1" d="m875.91,51.3l-23.9,71.64h-5.11c-.82,0-1.37-.5-1.66-1.51l-19.58-58.18c-.24-.72-.46-1.44-.65-2.16-.19-.72-.36-1.44-.5-2.16-.24,1.44-.6,2.88-1.08,4.32l-19.87,58.18c-.29,1.01-.86,1.51-1.73,1.51h-4.9l-23.9-71.64h5.18c.67,0,1.22.18,1.66.54.43.36.72.76.86,1.19l18.07,56.52c.29,1.1.55,2.17.79,3.2.24,1.03.43,2.05.58,3.06.29-1.01.58-2.03.86-3.06s.62-2.1,1.01-3.2l19.15-57.02c.34-1.06,1.01-1.58,2.02-1.58h2.81c1.06,0,1.75.53,2.09,1.58l19.01,57.02c.33,1.1.65,2.16.94,3.17s.55,2.02.79,3.02c.19-1.01.4-2.02.61-3.02.22-1.01.49-2.06.83-3.17l18.22-56.52c.19-.53.5-.95.94-1.26.43-.31.94-.47,1.51-.47h4.97Z"/>
    <path class="cls-1" d="m889.16,140.08c-.24-.19-.4-.38-.47-.58-.07-.19-.11-.41-.11-.65,0-.29.19-.67.58-1.15.43-.48,1.02-1.19,1.76-2.12.74-.94,1.51-2.04,2.3-3.31.79-1.27,1.51-2.7,2.16-4.28.65-1.58,1.07-3.29,1.26-5.11-.72.24-1.46.36-2.23.36-1.78,0-3.23-.6-4.36-1.8-1.13-1.2-1.69-2.74-1.69-4.61,0-1.68.58-3.12,1.73-4.32,1.15-1.2,2.66-1.8,4.54-1.8,2.06,0,3.66.71,4.79,2.12,1.13,1.42,1.69,3.28,1.69,5.58,0,1.97-.25,3.97-.76,6.01-.5,2.04-1.24,4.04-2.2,6.01-.96,1.97-2.11,3.86-3.46,5.69-1.34,1.82-2.83,3.5-4.46,5.04l-1.08-1.08Z"/>
    <path class="cls-1" d="m996.58,21.06c11.95,0,20.96,2.62,27.04,7.85,6.07,5.23,9.11,12.7,9.11,22.39,0,4.46-.84,8.57-2.52,12.31-1.68,3.74-4.08,6.97-7.2,9.68-3.12,2.71-6.91,4.82-11.38,6.34-4.46,1.51-9.48,2.27-15.05,2.27h-18.94v41.04h-7.42V21.06h26.35Zm0,54.94c4.46,0,8.47-.62,12.02-1.87,3.55-1.25,6.56-2.98,9.04-5.18,2.47-2.21,4.37-4.81,5.69-7.81,1.32-3,1.98-6.28,1.98-9.83,0-7.82-2.4-13.85-7.2-18.07-4.8-4.22-11.98-6.34-21.53-6.34h-18.94v49.1h18.94Z"/>
    <path class="cls-1" d="m1112,116.68v6.26h-55.66V21.06h7.42v95.62h48.24Z"/>
    <path class="cls-1" d="m1187.74,116.68v6.26h-55.66V21.06h7.42v95.62h48.24Z"/>
    <path class="cls-1" d="m1275.15,105.8c.48,0,.89.17,1.22.5l2.88,3.1c-2.11,2.26-4.4,4.28-6.88,6.08-2.47,1.8-5.18,3.34-8.14,4.61-2.95,1.27-6.19,2.26-9.72,2.95-3.53.7-7.4,1.04-11.63,1.04-7.06,0-13.52-1.24-19.4-3.71-5.88-2.47-10.93-5.98-15.16-10.51-4.22-4.54-7.5-10.02-9.83-16.45-2.33-6.43-3.49-13.58-3.49-21.46s1.2-14.78,3.6-21.17c2.4-6.38,5.76-11.87,10.08-16.45,4.32-4.58,9.5-8.14,15.55-10.66s12.72-3.78,20.02-3.78,13.13,1.08,18.5,3.24c5.38,2.16,10.27,5.21,14.69,9.14l-2.23,3.24c-.38.58-.98.86-1.8.86-.58,0-1.51-.53-2.81-1.58-1.3-1.06-3.1-2.22-5.4-3.49-2.3-1.27-5.17-2.44-8.6-3.49-3.43-1.06-7.55-1.58-12.35-1.58-6.14,0-11.77,1.06-16.88,3.17-5.11,2.11-9.5,5.14-13.18,9.07-3.67,3.94-6.54,8.74-8.6,14.4-2.06,5.66-3.1,12.02-3.1,19.08s1.04,13.63,3.13,19.3c2.09,5.66,4.96,10.45,8.6,14.36,3.65,3.91,7.96,6.91,12.92,9,4.97,2.09,10.33,3.13,16.09,3.13,3.65,0,6.9-.24,9.76-.72,2.86-.48,5.48-1.2,7.88-2.16,2.4-.96,4.63-2.14,6.7-3.53,2.06-1.39,4.1-3.02,6.12-4.9.24-.19.48-.35.72-.47.24-.12.48-.18.72-.18Z"/>
  </g>
</svg>