<?xml version="1.0" standalone="no"?>
<!DOCTYPE svg PUBLIC "-//W3C//DTD SVG 20010904//EN"
 "http://www.w3.org/TR/2001/REC-SVG-20010904/DTD/svg10.dtd">
<svg version="1.0" xmlns="http://www.w3.org/2000/svg"
 width="876.000000pt" height="876.000000pt" viewBox="0 0 876.000000 876.000000"
 preserveAspectRatio="xMidYMid meet">
<metadata>
Created by potrace 1.14, written by Peter Selinger 2001-2017
</metadata>
<g transform="translate(0.000000,876.000000) scale(0.100000,-0.100000)"
fill="#000000" stroke="none">
<path d="M3430 8663 l0 -98 293 0 292 0 2 -1177 c1 -1047 0 -1176 -13 -1163
-9 8 -30 16 -47 16 -69 3 -230 1 -382 -5 -192 -7 -503 -7 -750 0 -172 4 -437
7 -480 5 -15 -1 -21 -9 -23 -29 -3 -46 19 -67 75 -69 244 -8 458 -127 608
-338 53 -75 205 -324 205 -336 0 -5 5 -9 10 -9 6 0 10 -4 10 -8 0 -5 50 -91
110 -191 61 -100 110 -186 110 -191 0 -6 4 -10 9 -10 5 0 11 -8 15 -17 3 -10
26 -51 51 -91 25 -41 45 -77 45 -82 0 -5 4 -10 8 -12 5 -1 23 -30 42 -63 18
-33 37 -62 40 -65 4 -3 13 -20 21 -37 8 -18 17 -33 21 -33 5 0 8 -4 8 -9 0 -7
-76 -14 -125 -12 -95 4 -134 3 -144 -3 -7 -5 -11 -40 -11 -97 0 -78 2 -89 18
-90 9 0 99 0 199 1 170 1 182 0 192 -18 10 -19 12 -19 97 -2 76 16 152 18 656
18 313 0 572 2 574 5 10 9 5 180 -5 186 -6 4 -60 6 -121 6 -61 0 -113 2 -116
6 -3 6 92 152 133 204 31 39 83 117 83 124 0 5 4 11 8 13 4 2 43 55 86 118 43
63 88 125 99 138 11 12 16 22 11 22 -5 0 -4 4 2 8 6 4 45 57 87 117 344 497
416 592 502 657 75 57 185 88 312 89 56 1 88 26 80 61 -9 36 -39 42 -202 38
-190 -4 -742 -3 -945 2 -91 2 -177 2 -192 0 -26 -4 -26 -4 -11 -40 24 -59 20
-58 166 -66 87 -5 143 -30 170 -75 19 -33 15 -89 -15 -173 -19 -56 -33 -85
-75 -153 -7 -11 -24 -40 -39 -65 -45 -73 -142 -224 -153 -237 -6 -7 -11 -14
-11 -17 0 -3 -22 -39 -50 -79 -27 -41 -50 -79 -50 -85 0 -5 -4 -12 -8 -14 -4
-1 -27 -32 -50 -68 -23 -36 -46 -72 -52 -80 -6 -8 -57 -86 -114 -173 l-104
-158 1 778 2 778 40 2 c30 2 245 2 410 1 47 0 396 13 415 16 42 7 144 19 158
19 6 0 12 3 12 6 0 3 15 6 33 7 37 0 118 13 129 21 5 2 21 7 36 9 105 18 290
86 427 156 174 89 370 249 450 368 16 25 32 47 35 50 19 19 94 184 107 235 48
196 51 404 9 610 -2 11 -12 47 -22 80 -10 33 -19 62 -19 65 -7 27 -85 181
-101 201 -8 8 -14 19 -14 24 0 15 -72 99 -154 180 -169 167 -399 285 -663 340
-43 9 -87 19 -98 21 -11 2 -44 7 -74 10 -30 3 -64 8 -75 12 -12 3 -513 7
-1113 9 l-1093 4 0 -98z m2035 -107 c17 -3 59 -11 95 -17 36 -7 71 -17 79 -23
8 -6 16 -10 18 -8 18 14 219 -82 231 -110 2 -5 8 -8 14 -8 6 0 36 -26 68 -58
60 -61 115 -140 145 -207 9 -22 21 -49 26 -60 24 -55 54 -169 74 -280 25 -144
24 -394 -1 -530 -22 -118 -66 -229 -130 -327 -45 -70 -183 -213 -216 -224 -10
-3 -18 -10 -18 -15 0 -5 -6 -9 -14 -9 -8 0 -16 -4 -18 -9 -8 -23 -227 -117
-318 -137 -19 -4 -39 -9 -45 -10 -9 -2 -24 -5 -115 -20 -19 -4 -196 -8 -392
-10 -279 -3 -358 -1 -358 9 -1 16 -1 2050 -1 2059 1 8 835 3 876 -6z m-1447
-2750 c0 -310 -2 -364 -14 -359 -8 3 -14 9 -14 13 0 5 -22 47 -49 94 -47 80
-84 148 -160 288 -29 55 -59 135 -65 174 -2 10 4 33 12 51 20 41 67 60 169 69
43 3 87 12 98 20 11 7 21 13 22 13 0 1 1 -163 1 -363z"/>
<path d="M4297 4334 c-1 -1 -40 -5 -87 -8 -47 -3 -96 -8 -110 -10 -14 -3 -41
-7 -60 -10 -66 -11 -95 -16 -135 -26 -22 -5 -65 -15 -95 -22 -67 -15 -62 -13
-80 -20 -8 -3 -66 -22 -128 -42 -216 -68 -559 -221 -704 -313 -21 -13 -38 -20
-38 -17 0 4 -8 0 -17 -8 -10 -8 -45 -30 -78 -48 -33 -19 -62 -36 -65 -39 -3
-3 -21 -15 -40 -25 -19 -10 -55 -33 -80 -50 l-45 -30 -815 -1 c-746 -1 -818
-3 -847 -18 -78 -41 -81 -155 -6 -204 22 -15 51 -18 175 -18 81 -1 151 -5 155
-9 4 -4 8 -27 9 -50 2 -114 67 -215 168 -256 l54 -23 -2 -61 c-2 -34 -10 -75
-19 -93 -10 -18 -18 -36 -19 -40 -1 -8 -25 -65 -53 -128 -25 -56 -44 -105 -43
-108 1 -1 -5 -15 -15 -32 -14 -26 -38 -79 -82 -180 -7 -16 -36 -84 -65 -150
-28 -66 -61 -140 -72 -165 -39 -88 -47 -106 -73 -168 -14 -34 -39 -92 -55
-128 -17 -35 -30 -66 -30 -69 0 -2 -13 -32 -29 -67 -16 -35 -57 -128 -91 -208
-34 -80 -70 -163 -80 -185 -71 -157 -170 -391 -170 -400 0 -7 25 -11 67 -10
l66 0 26 56 c14 31 34 76 45 100 10 24 29 67 42 96 13 28 24 54 24 57 0 3 13
34 29 68 15 35 41 92 56 128 15 36 36 83 46 105 10 22 38 90 64 150 26 61 60
138 76 173 16 35 29 69 29 77 0 8 4 15 10 15 5 0 9 3 8 7 -1 5 4 20 10 35 21
52 105 243 133 306 16 34 29 69 29 77 0 8 4 15 9 15 5 0 12 11 15 25 4 14 17
49 30 78 13 28 36 78 50 110 13 31 26 57 28 57 2 0 2 -407 2 -905 l-2 -906 67
3 66 3 0 893 c-1 490 2 892 5 892 4 0 35 -66 70 -147 35 -82 73 -170 85 -198
13 -27 36 -81 53 -120 16 -38 38 -88 48 -110 9 -22 18 -42 19 -45 1 -3 7 -18
15 -35 7 -16 19 -44 26 -60 7 -17 21 -50 32 -75 11 -25 79 -182 151 -350 72
-168 136 -314 141 -325 6 -11 32 -72 59 -135 l50 -115 70 -3 c75 -3 85 4 61
46 -10 18 -110 246 -115 262 -1 3 -8 21 -17 40 -16 36 -45 102 -218 500 -118
272 -123 283 -125 290 -1 3 -13 31 -28 64 -15 32 -27 60 -27 62 0 2 -13 33
-30 69 -16 36 -30 68 -30 70 0 3 -13 33 -30 67 -16 34 -30 65 -30 69 0 5 -13
36 -29 71 -53 116 -93 206 -96 218 0 3 -9 23 -19 45 -10 22 -22 49 -27 60 -4
11 -20 47 -35 80 -18 41 -27 80 -29 123 l-2 64 41 25 c88 55 135 133 139 234
2 48 7 64 18 64 7 0 19 4 25 7 6 4 14 5 16 2 7 -6 456 -6 467 0 4 3 11 3 14 0
3 -3 85 -5 182 -4 173 1 178 1 218 27 159 102 609 343 639 343 4 0 31 11 60
25 124 57 452 167 571 191 10 2 26 5 35 8 9 3 31 8 47 11 17 2 41 7 55 11 98
22 201 32 325 29 77 -2 154 -6 170 -9 17 -4 64 -14 105 -22 151 -30 383 -93
422 -115 10 -5 24 -9 31 -9 13 0 157 -56 297 -115 89 -37 245 -113 300 -145
25 -15 47 -26 50 -26 6 0 128 -70 251 -145 l96 -58 141 -2 c77 0 145 2 150 5
5 3 12 3 14 0 3 -2 107 -5 232 -5 125 0 230 3 235 5 4 3 11 3 14 -1 4 -3 30
-6 59 -7 l52 -1 2 -65 c2 -103 47 -178 139 -232 l40 -23 -1 -61 c0 -49 -9 -81
-44 -160 -23 -55 -47 -105 -53 -111 -5 -7 -7 -13 -4 -13 3 0 -21 -60 -54 -132
-33 -73 -60 -135 -60 -138 0 -3 -13 -33 -29 -68 -17 -34 -30 -64 -30 -67 0 -3
-9 -24 -19 -48 -11 -23 -33 -73 -50 -110 -17 -38 -34 -79 -37 -93 -3 -13 -10
-24 -15 -24 -5 0 -9 -6 -9 -14 0 -13 -12 -42 -81 -194 -16 -35 -29 -69 -29
-76 0 -6 -4 -16 -9 -21 -7 -8 -84 -180 -87 -195 0 -3 -10 -25 -21 -50 -11 -25
-66 -151 -122 -280 -56 -129 -112 -257 -125 -285 -13 -27 -22 -53 -19 -57 2
-4 33 -7 69 -7 57 1 67 4 75 23 5 11 13 28 18 36 5 8 19 40 31 70 13 30 31 73
40 95 10 22 39 90 65 150 26 61 53 124 61 140 7 17 22 53 34 80 12 27 28 63
35 80 7 16 49 113 93 215 44 102 88 203 98 225 9 22 18 42 19 45 1 3 9 21 18
40 47 105 129 297 131 308 1 7 8 18 14 24 7 7 12 18 12 25 0 8 11 35 24 61 13
26 26 59 30 75 3 15 11 27 17 27 6 0 9 -7 5 -15 -3 -8 -2 -15 2 -15 4 0 6 -19
5 -42 -1 -24 -2 -43 -3 -43 -6 0 -4 -57 2 -61 4 -3 3 -15 -1 -27 -5 -12 -5
-32 0 -44 4 -12 5 -24 1 -27 -9 -6 -8 -48 1 -63 4 -7 4 -14 0 -16 -9 -6 -9
-129 0 -143 3 -6 2 -16 -3 -24 -5 -8 -5 -22 1 -32 5 -10 6 -18 2 -18 -4 0 -8
-25 -8 -55 0 -30 2 -55 5 -55 4 0 4 -71 0 -77 -5 -8 -3 -50 3 -60 4 -6 4 -14
-1 -17 -9 -5 -9 -47 1 -63 4 -7 4 -14 -1 -17 -9 -5 -9 -47 1 -63 4 -7 4 -14 0
-16 -9 -6 -9 -129 0 -143 3 -6 2 -16 -3 -24 -5 -8 -5 -22 1 -32 5 -10 6 -18 2
-18 -4 0 -8 -25 -8 -55 0 -30 2 -55 5 -55 3 0 4 -17 3 -37 -1 -21 -2 -38 -3
-38 -6 0 -4 -58 2 -61 5 -3 5 -10 1 -17 -8 -14 -10 -187 -2 -187 4 0 3 -16 -1
-35 -4 -19 -4 -35 1 -35 5 0 4 -11 -1 -25 -8 -21 -6 -26 13 -31 13 -3 46 -4
73 -2 l49 3 0 897 c1 493 4 900 8 904 4 4 7 -2 7 -13 0 -11 3 -23 6 -26 4 -4
17 -30 29 -59 35 -84 251 -580 279 -642 14 -31 26 -59 26 -62 0 -5 30 -73 76
-171 13 -28 24 -55 24 -58 0 -4 13 -36 30 -72 16 -35 30 -66 30 -68 0 -3 11
-28 24 -57 13 -29 45 -102 71 -163 54 -128 64 -151 98 -225 13 -30 27 -65 31
-78 4 -12 15 -26 24 -30 15 -7 33 -8 114 -3 l26 1 -19 39 c-10 22 -51 113 -90
203 -39 90 -77 178 -85 196 -8 17 -20 47 -28 65 -8 17 -31 70 -51 117 -38 89
-38 90 -80 185 -15 33 -45 103 -67 155 -22 52 -52 120 -65 150 -14 30 -45 102
-70 160 -24 58 -53 123 -63 145 -53 119 -70 159 -70 171 0 8 -4 14 -10 14 -5
0 -10 6 -10 13 0 8 -6 27 -14 43 -8 16 -28 63 -46 104 -18 41 -41 94 -51 117
-23 51 -42 96 -43 103 -1 3 -4 10 -8 16 -19 30 -39 109 -37 149 3 43 4 45 54
65 100 40 154 121 164 244 l6 70 150 1 c122 1 156 4 182 18 35 18 63 62 63 97
0 40 -28 89 -62 106 -31 17 -90 18 -853 18 l-820 1 -120 73 c-66 40 -127 77
-135 82 -269 166 -791 392 -985 427 -16 3 -38 9 -47 14 -10 5 -18 8 -18 5 0
-3 -22 2 -49 10 -28 8 -53 14 -58 13 -4 -1 -19 1 -33 4 -14 4 -43 9 -65 12
-22 4 -53 8 -70 11 -68 11 -330 25 -338 18z"/>
<path d="M4229 3919 c-13 -3 -55 -12 -94 -19 -116 -21 -214 -47 -227 -61 -7
-8 -20 -24 -28 -36 -91 -131 -126 -180 -136 -191 -7 -6 -16 -21 -19 -32 -3
-11 -11 -20 -16 -20 -5 0 -9 -6 -9 -14 0 -8 -3 -16 -7 -18 -5 -1 -21 -23 -38
-48 -16 -24 -35 -51 -42 -60 -13 -16 -143 -203 -215 -309 -24 -35 -51 -72 -60
-82 -10 -11 -18 -21 -18 -24 0 -3 -78 -118 -102 -150 -41 -54 -78 -107 -88
-126 -7 -12 -17 -28 -21 -33 -23 -27 -70 -93 -133 -185 -38 -56 -74 -101 -78
-101 -5 0 -7 -4 -4 -9 4 -5 3 -11 -1 -13 -5 -1 -32 -32 -62 -68 -30 -36 -77
-86 -105 -112 -49 -46 -167 -113 -216 -124 -81 -16 -133 -24 -195 -29 -49 -4
-74 -10 -82 -22 -19 -25 -16 -50 8 -67 18 -12 56 -14 228 -9 255 6 587 6 876
-1 241 -5 268 -1 273 45 4 33 -16 49 -70 54 -23 3 -65 7 -91 10 -130 15 -167
80 -121 215 3 8 5 17 6 20 0 9 62 124 73 137 6 6 27 40 48 75 21 35 86 140
144 233 58 94 160 258 225 365 66 107 130 211 142 230 12 19 34 53 48 75 125
199 148 237 148 240 0 2 11 20 24 40 14 20 26 41 29 48 5 14 47 -19 47 -36 0
-5 16 -34 35 -63 19 -29 35 -55 35 -59 0 -3 8 -18 19 -33 20 -29 137 -225 169
-283 39 -70 47 -84 52 -89 5 -5 10 -13 52 -89 31 -55 117 -204 128 -221 5 -8
18 -31 28 -50 10 -19 63 -111 116 -205 134 -232 147 -256 164 -290 9 -16 18
-32 21 -35 4 -3 19 -30 34 -60 44 -90 34 -140 -33 -155 -20 -4 -35 -16 -41
-32 -18 -48 -17 -50 66 -70 70 -17 1357 -28 1397 -12 34 14 45 45 24 68 -12
13 -33 19 -74 20 -63 2 -97 7 -157 23 -22 6 -44 11 -50 13 -67 15 -176 78
-232 133 -60 58 -143 163 -143 181 0 5 -3 11 -7 13 -10 4 -102 145 -235 360
-57 91 -116 188 -133 214 -40 64 -55 89 -90 149 -16 28 -32 52 -35 55 -4 3
-21 30 -38 60 -39 66 -49 82 -83 135 -14 22 -29 47 -32 55 -4 8 -20 35 -37 60
-24 38 -62 100 -115 189 -5 9 -25 39 -42 67 l-33 50 -112 32 c-62 17 -124 33
-138 36 -26 5 -38 8 -130 28 -30 6 -66 13 -80 15 -47 8 -286 9 -311 2z"/>
<path d="M282 757 c36 -69 117 -194 157 -241 34 -41 178 -185 216 -216 160
-132 370 -231 587 -277 87 -18 341 -25 425 -11 49 8 161 36 183 45 8 3 17 7
20 8 39 10 155 59 180 76 8 5 29 16 45 23 35 17 174 115 218 154 63 57 154
150 192 198 21 27 42 51 45 54 4 3 32 46 64 95 32 50 67 102 77 117 23 34 11
38 -55 21 -44 -12 -139 -34 -211 -49 -11 -2 -31 -6 -45 -10 -14 -3 -38 -7 -55
-10 -16 -2 -50 -9 -75 -14 -137 -29 -334 -56 -560 -77 -101 -9 -588 -9 -670 0
-36 5 -81 10 -100 12 -19 2 -49 6 -66 9 -17 3 -46 8 -65 10 -19 3 -45 8 -59
11 -14 2 -50 10 -80 16 -89 18 -291 76 -345 99 -57 24 -58 23 -23 -43z"/>
<path d="M6070 815 c0 -11 97 -168 135 -219 106 -144 239 -275 373 -369 82
-58 268 -152 321 -162 12 -2 26 -7 31 -10 10 -6 40 -14 75 -20 11 -2 20 -4 20
-5 0 -3 18 -6 120 -20 116 -17 345 -4 435 25 10 3 28 8 39 10 12 3 30 7 40 9
53 12 216 86 296 135 221 135 377 295 504 516 55 95 63 122 34 107 -49 -26
-311 -103 -403 -118 -14 -3 -47 -9 -75 -14 -27 -5 -68 -12 -90 -16 -22 -3 -51
-7 -64 -9 -124 -21 -600 -27 -781 -11 -52 4 -108 9 -125 11 -16 1 -55 6 -85
11 -30 4 -64 9 -75 9 -11 1 -36 5 -55 8 -19 4 -51 9 -70 12 -40 5 -134 22
-170 29 -60 13 -77 16 -115 22 -22 3 -43 8 -46 10 -3 2 -19 6 -35 8 -16 3 -38
8 -49 10 -23 5 -142 35 -167 42 -10 3 -18 2 -18 -1z"/>
</g>
</svg>
